<?xml version="1.0" encoding="UTF-8" standalone="no"?>
<svg width="407px" height="92px" viewBox="0 0 407 92" version="1.1" xmlns="http://www.w3.org/2000/svg" xmlns:xlink="http://www.w3.org/1999/xlink">
    <!-- Generator: Sketch 39.1 (31720) - http://www.bohemiancoding.com/sketch -->
    <title>Icon</title>
    <desc>Created with Sketch.</desc>
    <defs>
        <path d="M11.6660156,37.0605469 C15.9384766,37.0605469 19.2832031,34.7412109 20.796875,31.1767578 L20.8701172,31.1767578 L20.8701172,36.7675781 L23.9462891,36.7675781 L23.9462891,0 L20.6992188,0 L20.6992188,15.8691406 L20.6259766,15.8691406 C19.2099609,12.4755859 15.8408203,10.1806641 11.5927734,10.1806641 C5.04980469,10.1806641 0.411132812,15.5761719 0.411132812,23.6083984 C0.411132812,31.640625 5.07421875,37.0605469 11.6660156,37.0605469 L11.6660156,37.0605469 Z" id="path-1"></path>
        <path d="M12.1162109,37.0605469 C16.3886719,37.0605469 19.7333984,34.7412109 21.2470703,31.1767578 L21.3203125,31.1767578 L21.3203125,36.7675781 L24.3964844,36.7675781 L24.3964844,0 L21.1494141,0 L21.1494141,15.8691406 L21.0761719,15.8691406 C19.6601562,12.4755859 16.2910156,10.1806641 12.0429688,10.1806641 C5.5,10.1806641 0.861328125,15.5761719 0.861328125,23.6083984 C0.861328125,31.640625 5.52441406,37.0605469 12.1162109,37.0605469 L12.1162109,37.0605469 Z" id="path-3"></path>
        <path d="M20.3652344,19.3212891 C19.5839844,22.2021484 16.7763672,24.2041016 12.8212891,24.2041016 C7.59667969,24.2041016 4.17871094,20.5419922 4.17871094,14.5849609 L4.17871094,14.4140625 L23.9052734,14.4140625 L23.9052734,12.9980469 C23.9052734,5.18554688 19.4619141,0.180664062 12.5527344,0.180664062 C5.47265625,0.180664062 0.833984375,5.52734375 0.833984375,13.6816406 C0.833984375,21.9580078 5.47265625,27.0605469 12.7480469,27.0605469 C18.4609375,27.0605469 22.7822266,23.8134766 23.5634766,19.3212891 L20.3652344,19.3212891 Z" id="path-5"></path>
    </defs>
    <g id="Page-1" stroke="none" stroke-width="1" fill="none" fill-rule="evenodd">
        <g id="Desktop-HD" transform="translate(-330.000000, -493.000000)">
            <g id="Icon" transform="translate(330.000000, 494.000000)">
                <path d="M200.769231,11.5384615 C199.816035,14.1009334 199.160984,17.6033016 198.461538,20.7692308 C196.721411,31.6594641 195.574529,33.6255488 190.384615,33.4615385 C185.94246,33.6255488 185.126367,31.3224028 183.461538,24.2307692 C183.324435,22.2556439 182.508342,18.5626793 181.153846,17.3076923 C180.068769,18.180847 179.413719,20.4341054 178.846154,21.9230769 C178.273366,25.6633535 177.457273,28.6361452 171.923077,28.8461538 C165.385631,28.6361452 164.399791,26.4775454 163.846154,24.2307692 C163.252909,23.9844425 162.597859,22.5927053 161.538462,21.9230769 C160.149581,22.4001901 159.827496,22.5927053 159.230769,23.0769231 C157.701303,24.0791011 156.23016,25.133777 152.307692,25.3846154 C147.747149,25.133777 145.792879,24.461573 144.230769,24.2307692 C143.344601,23.6448228 142.850593,23.5495246 141.923077,23.0769231 C140.7244,23.5495246 140.241273,23.6448228 139.615385,24.2307692 C137.954038,24.0791011 136.16081,24.4641314 132.692308,24.2307692 L122.307692,24.2307692 C121.138177,24.4641314 120,24.1296283 120,24.2307692 C120,23.3595678 121.138177,23.0250648 122.307692,23.0769231 L132.692308,23.0769231 C134.528625,23.0250648 135.50576,22.8325497 136.153846,23.0769231 C137.623248,22.4001901 139.255433,22.1130164 141.923077,21.9230769 C145.298871,22.1130164 146.931056,22.6880035 147.692308,23.0769231 C149.209587,23.4574244 149.864637,23.6972688 152.307692,24.2307692 C152.643705,23.6972688 153.137713,23.552083 154.615385,23.0769231 C155.253025,22.0656871 156.724168,20.9611236 161.538462,20.7692308 C166.839364,20.9611236 167.655457,22.8325497 168.461538,24.2307692 C168.965557,25.4708384 169.611903,27.1024201 170.769231,27.6923077 C173.037315,26.7173898 173.692366,23.6473812 174.230769,21.9230769 C175.163509,18.1309594 175.816383,15.4926707 181.153846,15 C186.264545,15.4926707 187.241679,17.8431461 189.230769,24.2307692 C189.206831,26.812688 189.853176,29.8353673 190.384615,31.1538462 C192.310159,29.1638029 193.126251,23.9345549 193.846154,20.7692308 C195.411311,9.88095073 196.390622,8.34466724 200.769231,8.07692308 C204.873633,8.34466724 205.850767,9.73640449 207.692308,25.3846154 C208.632011,30.0278825 209.448104,34.8721003 210,38.0769231 C211.241331,34.152567 212.057424,27.4369231 212.307692,21.9230769 C215.160752,0.814191876 216.137887,0 220.384615,0 C224.459855,0 225.275948,1.19922213 227.307692,16.1538462 C227.893973,21.4913397 228.710066,28.5888159 230.769231,31.1538462 C231.482605,29.6933794 232.135479,26.2856698 233.076923,24.2307692 C234.10063,16.4993777 235.077765,14.1508211 240,13.8461538 C244.709834,14.1508211 245.848011,16.3567502 246.923077,20.7692308 C248.135246,22.1629041 249.112381,24.5613483 250.384615,25.3846154 C250.744567,25.1363354 251.068827,24.9438202 251.538462,24.2307692 C253.023097,23.9345549 254.82503,23.0723941 259.615385,23.0769231 L267.692308,23.0769231 C268.859647,23.0723941 270,23.4075367 270,24.2307692 C270,24.1769576 268.859647,24.5114607 267.692308,24.2307692 L259.615385,24.2307692 C257.919653,24.5114607 257.264603,24.7513051 256.153846,25.3846154 C255.310333,25.805981 253.678148,26.6227312 249.230769,26.5384615 C245.184256,26.6227312 244.207121,24.6566465 242.307692,20.7692308 C242.083104,19.2348833 241.267011,17.0289542 240,16.1538462 C238.818733,17.4587554 238.002641,21.200968 237.692308,24.2307692 C235.885152,31.4196197 235.06906,33.8653933 229.615385,33.4615385 C225.43699,33.8653933 224.298813,32.3316681 222.692308,16.1538462 C221.680788,11.9922213 221.034443,7.28999136 220.384615,4.61538462 C219.077997,8.34722558 218.261904,15.5898876 218.076923,21.9230769 C215.321794,41.9727744 214.344659,42.6923077 210,42.6923077 C206.344776,42.6923077 205.367641,41.4457563 203.076923,25.3846154 C202.747439,21.1536387 201.770304,15.1101988 200.769231,11.5384615 Z" id="Waveform" stroke="#E0085C" stroke-width="0.5" fill="#4A4A4A"></path>
                <g id="words" transform="translate(0.000000, 53.000000)">
                    <path d="M3.75976563,4.17480469 L3.75976563,10.4736328 L0,10.4736328 L0,13.1835938 L3.75976563,13.1835938 L3.75976563,30.2978516 C3.75976563,35.0341797 5.51757812,36.9140625 9.86328125,36.9140625 C10.546875,36.9140625 11.9628906,36.8408203 12.3046875,36.7431641 L12.3046875,33.984375 C12.109375,34.0087891 10.8398438,34.0820312 10.4980469,34.0820312 C8.05664062,34.0820312 6.98242188,32.9101562 6.98242188,30.1757812 L6.98242188,13.1835938 L12.1826172,13.1835938 L12.1826172,10.4736328 L6.98242188,10.4736328 L6.98242188,4.17480469 L3.75976563,4.17480469 Z M17.1875,36.7675781 L20.4101562,36.7675781 L20.4101562,21.4355469 C20.4101562,16.4306641 23.5107422,13.0615234 28.2714844,13.0615234 C32.7636719,13.0615234 35.3515625,15.8447266 35.3515625,20.4345703 L35.3515625,36.7675781 L38.5742188,36.7675781 L38.5742188,19.921875 C38.5742188,14.0380859 34.9365234,10.1806641 29.1748047,10.1806641 C24.9511719,10.1806641 21.9482422,12.109375 20.4833984,15.3808594 L20.4101562,15.3808594 L20.4101562,0 L17.1875,0 L17.1875,36.7675781 Z M62.4511719,29.3212891 C61.6699219,32.2021484 58.8623047,34.2041016 54.9072266,34.2041016 C49.6826172,34.2041016 46.2646484,30.5419922 46.2646484,24.5849609 L46.2646484,24.4140625 L65.9912109,24.4140625 L65.9912109,22.9980469 C65.9912109,15.1855469 61.5478516,10.1806641 54.6386719,10.1806641 C47.5585938,10.1806641 42.9199219,15.5273438 42.9199219,23.6816406 C42.9199219,31.9580078 47.5585938,37.0605469 54.8339844,37.0605469 C60.546875,37.0605469 64.8681641,33.8134766 65.6494141,29.3212891 L62.4511719,29.3212891 Z M211.889648,37.0605469 C218.530273,37.0605469 223.046875,31.6650391 223.046875,23.6083984 C223.046875,15.5761719 218.530273,10.1806641 211.938477,10.1806641 C207.788086,10.1806641 204.418945,12.3291016 202.905273,15.8691406 L202.832031,15.8691406 L202.832031,0 L199.609375,0 L199.609375,36.7675781 L202.685547,36.7675781 L202.685547,31.2011719 L202.758789,31.2011719 C204.321289,34.8876953 207.69043,37.0605469 211.889648,37.0605469 L211.889648,37.0605469 Z M211.352539,13.0615234 C216.381836,13.0615234 219.750977,17.2851562 219.750977,23.6083984 C219.750977,29.9560547 216.381836,34.1552734 211.328125,34.1552734 C206.298828,34.1552734 202.807617,29.8339844 202.807617,23.6328125 C202.807617,17.4072266 206.298828,13.0615234 211.352539,13.0615234 L211.352539,13.0615234 Z M237.890625,13.0371094 C242.651367,13.0371094 245.874023,16.5527344 245.922852,21.7773438 L229.56543,21.7773438 C229.858398,16.5527344 233.178711,13.0371094 237.890625,13.0371094 L237.890625,13.0371094 Z M54.890625,13.0371094 C59.6513672,13.0371094 62.8740234,16.5527344 62.9228516,21.7773438 L46.5654297,21.7773438 C46.8583984,16.5527344 50.1787109,13.0371094 54.890625,13.0371094 L54.890625,13.0371094 Z M245.751953,29.3212891 C244.970703,32.2021484 242.163086,34.2041016 238.208008,34.2041016 C232.983398,34.2041016 229.56543,30.5419922 229.56543,24.5849609 L229.56543,24.4140625 L249.291992,24.4140625 L249.291992,22.9980469 C249.291992,15.1855469 244.848633,10.1806641 237.939453,10.1806641 C230.859375,10.1806641 226.220703,15.5273438 226.220703,23.6816406 C226.220703,31.9580078 230.859375,37.0605469 238.134766,37.0605469 C243.847656,37.0605469 248.168945,33.8134766 248.950195,29.3212891 L245.751953,29.3212891 Z M253.24707,17.5537109 C253.24707,21.0205078 255.493164,23.1689453 260.03418,24.3164062 L264.477539,25.4394531 C268.041992,26.3183594 269.384766,27.5390625 269.384766,29.7607422 C269.384766,32.5439453 266.650391,34.3505859 262.719727,34.3505859 C258.740234,34.3505859 256.12793,32.3730469 255.737305,29.3701172 L252.46582,29.3701172 C252.832031,33.8378906 256.884766,37.0605469 262.524414,37.0605469 C268.432617,37.0605469 272.65625,33.984375 272.65625,29.5410156 C272.65625,25.8056641 270.654297,23.9013672 265.380859,22.5830078 L261.352539,21.6064453 C258.007812,20.7763672 256.445312,19.53125 256.445312,17.3828125 C256.445312,14.7216797 259.082031,12.9150391 262.597656,12.9150391 C266.308594,12.9150391 268.725586,14.8925781 269.042969,17.8710938 L272.143555,17.8710938 C271.875,13.3544922 268.017578,10.1806641 262.695312,10.1806641 C257.275391,10.1806641 253.24707,13.2080078 253.24707,17.5537109 L253.24707,17.5537109 Z M278.588867,4.17480469 L278.588867,10.4736328 L274.829102,10.4736328 L274.829102,13.1835938 L278.588867,13.1835938 L278.588867,30.2978516 C278.588867,35.0341797 280.34668,36.9140625 284.692383,36.9140625 C285.375977,36.9140625 286.791992,36.8408203 287.133789,36.7431641 L287.133789,33.984375 C286.938477,34.0087891 285.668945,34.0820312 285.327148,34.0820312 C282.885742,34.0820312 281.811523,32.9101562 281.811523,30.1757812 L281.811523,13.1835938 L287.011719,13.1835938 L287.011719,10.4736328 L281.811523,10.4736328 L281.811523,4.17480469 L278.588867,4.17480469 Z" id="themindsbestfriend" fill="#4A4A4A"></path>
                    <g id="minds" transform="translate(70.000000, 0.000000)">
                        <path d="M105.439453,17.5537109 C105.439453,21.0205078 107.685547,23.1689453 112.226562,24.3164062 L116.669922,25.4394531 C120.234375,26.3183594 121.577148,27.5390625 121.577148,29.7607422 C121.577148,32.5439453 118.842773,34.3505859 114.912109,34.3505859 C110.932617,34.3505859 108.320312,32.3730469 107.929688,29.3701172 L104.658203,29.3701172 C105.024414,33.8378906 109.077148,37.0605469 114.716797,37.0605469 C120.625,37.0605469 124.848633,33.984375 124.848633,29.5410156 C124.848633,25.8056641 122.84668,23.9013672 117.573242,22.5830078 L113.544922,21.6064453 C110.200195,20.7763672 108.637695,19.53125 108.637695,17.3828125 C108.637695,14.7216797 111.274414,12.9150391 114.790039,12.9150391 C118.500977,12.9150391 120.917969,14.8925781 121.235352,17.8710938 L124.335938,17.8710938 C124.067383,13.3544922 120.209961,10.1806641 114.887695,10.1806641 C109.467773,10.1806641 105.439453,13.2080078 105.439453,17.5537109 L105.439453,17.5537109 Z" id="Path" fill="#000000"></path>
                        <path d="M50.9472656,36.7675781 L54.1699219,36.7675781 L54.1699219,21.3134766 C54.1699219,16.40625 57.1484375,13.0615234 61.8359375,13.0615234 C66.3037109,13.0615234 68.8427734,15.7226562 68.8427734,20.3613281 L68.8427734,36.7675781 L72.0654297,36.7675781 L72.0654297,19.8486328 C72.0654297,13.8916016 68.5253906,10.1806641 62.7392578,10.1806641 C58.4912109,10.1806641 55.5371094,12.109375 54.0722656,15.3808594 L53.9746094,15.3808594 L53.9746094,10.4736328 L50.9472656,10.4736328 L50.9472656,36.7675781 Z" id="Path" fill="#000000"></path>
                        <path d="M43.28125,5.2734375 C44.4775391,5.2734375 45.4541016,4.27246094 45.4541016,3.10058594 C45.4541016,1.87988281 44.4775391,0.903320312 43.28125,0.903320312 C42.0849609,0.903320312 41.0839844,1.87988281 41.0839844,3.10058594 C41.0839844,4.27246094 42.0849609,5.2734375 43.28125,5.2734375 L43.28125,5.2734375 Z" id="Path" fill="#000000"></path>
                        <polygon id="Path" fill="#000000" points="41.6699219 36.7675781 44.8925781 36.7675781 44.8925781 10.4736328 41.6699219 10.4736328"></polygon>
                        <path d="M0.483398438,36.7675781 L3.70605469,36.7675781 L3.70605469,20.7275391 C3.70605469,16.2109375 6.51367188,13.0615234 10.4199219,13.0615234 C14.0332031,13.0615234 16.4990234,15.5761719 16.4990234,19.3359375 L16.4990234,36.7675781 L19.7216797,36.7675781 L19.7216797,20.3369141 C19.7216797,16.0888672 22.4560547,13.0615234 26.3867188,13.0615234 C30.2441406,13.0615234 32.5146484,15.5517578 32.5146484,19.6533203 L32.5146484,36.7675781 L35.7617188,36.7675781 L35.7617188,18.9208984 C35.7617188,13.5986328 32.3925781,10.1806641 27.265625,10.1806641 C23.3105469,10.1806641 20.1855469,12.4511719 18.9404297,15.6982422 C17.8662109,12.3779297 15.0830078,10.1806641 11.2744141,10.1806641 C7.5390625,10.1806641 4.73144531,12.2802734 3.60839844,15.3808594 L3.51074219,10.4736328 L0.483398438,10.4736328 L0.483398438,36.7675781 Z" id="Path" fill="#000000"></path>
                        <g id="Path" transform="translate(76.000000, 0.000000)">
                            <mask id="mask-2" fill="white">
                                <use xlink:href="#path-1"></use>
                            </mask>
                            <use id="Mask" fill="#000000" xlink:href="#path-1"></use>
                            <path d="M12.1787109,13.0615234 C17.2324219,13.0615234 20.7236328,17.3828125 20.7236328,23.6083984 C20.7236328,29.8828125 17.2324219,34.1552734 12.1787109,34.1552734 C7.14941406,34.1552734 3.70703125,29.9560547 3.70703125,23.6083984 C3.70703125,17.2851562 7.14941406,13.0615234 12.1787109,13.0615234 L12.1787109,13.0615234 Z" fill="#FFFFFF" mask="url(#mask-2)"></path>
                        </g>
                    </g>
                    <g id="friend" transform="translate(289.000000, 0.000000)">
                        <g id="Path" transform="translate(93.000000, 0.000000)">
                            <mask id="mask-4" fill="white">
                                <use xlink:href="#path-3"></use>
                            </mask>
                            <use id="Mask" fill="#000000" xlink:href="#path-3"></use>
                            <path d="M12.6289062,13.0615234 C17.6826172,13.0615234 21.1738281,17.3828125 21.1738281,23.6083984 C21.1738281,29.8828125 17.6826172,34.1552734 12.6289062,34.1552734 C7.59960938,34.1552734 4.15722656,29.9560547 4.15722656,23.6083984 C4.15722656,17.2851562 7.59960938,13.0615234 12.6289062,13.0615234 L12.6289062,13.0615234 Z" fill="#FFFFFF" mask="url(#mask-4)"></path>
                        </g>
                        <path d="M68.3974609,36.7675781 L71.6201172,36.7675781 L71.6201172,21.3134766 C71.6201172,16.40625 74.5986328,13.0615234 79.2861328,13.0615234 C83.7539062,13.0615234 86.2929688,15.7226562 86.2929688,20.3613281 L86.2929688,36.7675781 L89.515625,36.7675781 L89.515625,19.8486328 C89.515625,13.8916016 85.9755859,10.1806641 80.1894531,10.1806641 C75.9414062,10.1806641 72.9873047,12.109375 71.5224609,15.3808594 L71.4248047,15.3808594 L71.4248047,10.4736328 L68.3974609,10.4736328 L68.3974609,36.7675781 Z" id="Path" fill="#000000"></path>
                        <path d="M34.4863281,5.2734375 C35.6826172,5.2734375 36.6591797,4.27246094 36.6591797,3.10058594 C36.6591797,1.87988281 35.6826172,0.903320312 34.4863281,0.903320312 C33.2900391,0.903320312 32.2890625,1.87988281 32.2890625,3.10058594 C32.2890625,4.27246094 33.2900391,5.2734375 34.4863281,5.2734375 L34.4863281,5.2734375 Z" id="Path" fill="#000000"></path>
                        <polygon id="Path" fill="#000000" points="32.875 36.7675781 36.0976562 36.7675781 36.0976562 10.4736328 32.875 10.4736328"></polygon>
                        <path d="M17.1523438,36.7675781 L20.375,36.7675781 L20.375,20.4589844 C20.375,16.2109375 22.7675781,13.28125 26.5029297,13.28125 C27.6259766,13.28125 28.5537109,13.4521484 28.9931641,13.6474609 L28.9931641,10.4492188 C28.578125,10.3271484 27.796875,10.1806641 26.9423828,10.1806641 C23.6708984,10.1806641 21.1806641,12.0117188 20.2773438,15.1367188 L20.1796875,15.1367188 L20.1796875,10.4736328 L17.1523438,10.4736328 L17.1523438,36.7675781 Z" id="Path" fill="#000000"></path>
                        <path d="M4.09082031,36.7675781 L7.33789063,36.7675781 L7.33789063,13.1835938 L12.6845703,13.1835938 L12.6845703,10.4736328 L7.33789063,10.4736328 L7.33789063,7.51953125 C7.36230469,4.6875 8.50976562,3.56445312 10.8535156,3.56445312 C11.5126953,3.56445312 12.2207031,3.63769531 12.7578125,3.75976562 L12.7578125,1.04980469 C12.0986328,0.903320312 11.390625,0.830078125 10.5849609,0.830078125 C6.21484375,0.830078125 4.09082031,2.85644531 4.09082031,7.47070312 L4.09082031,10.4736328 L0.428710938,10.4736328 L0.428710938,13.1835938 L4.09082031,13.1835938 L4.09082031,36.7675781 Z" id="Path" fill="#000000"></path>
                        <g id="Path" transform="translate(40.000000, 10.000000)">
                            <mask id="mask-6" fill="white">
                                <use xlink:href="#path-5"></use>
                            </mask>
                            <use id="Mask" fill="#000000" xlink:href="#path-5"></use>
                            <path d="M12.5039062,3.03710938 C17.2646484,3.03710938 20.4873047,6.55273438 20.5361328,11.7773438 L4.17871094,11.7773438 C4.47167969,6.55273438 7.79199219,3.03710938 12.5039062,3.03710938 L12.5039062,3.03710938 Z" fill="#FFFFFF" mask="url(#mask-6)"></path>
                        </g>
                    </g>
                </g>
            </g>
        </g>
    </g>
</svg>